<?xml version="1.0" encoding="UTF-8" standalone="no"?>
<!DOCTYPE svg PUBLIC "-//W3C//DTD SVG 1.1//EN" "http://www.w3.org/Graphics/SVG/1.1/DTD/svg11.dtd">
<svg version="1.1" xmlns="http://www.w3.org/2000/svg" xmlns:xlink="http://www.w3.org/1999/xlink" preserveAspectRatio="xMidYMid meet" viewBox="0 0 360 131"><defs><path d="M117.39 40.56C121.08 52.42 120.71 62.95 121.08 65.44C121.08 81.11 117.04 90.74 116.59 93.55C112.09 105.88 105.49 112.01 104.26 114.06C96.2 122.47 87.05 125.46 85.14 126.73C74.08 130.99 62.95 130.57 60.48 130.99C45.62 130.99 36.63 126.53 33.98 126.04C22.35 121.08 16.98 113.8 15.09 112.44C7.49 103.46 4.83 93.57 3.68 91.48C0 79.38 0.37 68.04 0 65.44C0 51.73 3.21 42.73 3.57 40.21C7.26 28.69 13.83 21.44 14.97 19.36C22.35 10.37 32.08 6.6 33.98 5.19C45.62 0 57.94 0.52 60.6 0C76.38 0 84.96 4.77 87.67 5.3C95.2 8.84 101.46 13.64 106.45 19.7C113.02 32.21 116.66 39.17 117.39 40.56ZM86.17 22.93C76.84 7.84 63.26 9.35 60.71 7.84C44.35 7.84 37.49 21.42 34.91 22.93C25.46 38.02 26.4 61.19 25.46 65.44C25.46 91.48 33.55 103.18 34.44 107.38C43.55 123.16 57.88 121.58 60.48 123.16C77.42 123.16 83.91 108.95 86.52 107.38C92.59 96.78 95.62 82.8 95.62 65.44C89.95 39.93 86.8 25.76 86.17 22.93Z" id="b2m74RkYO1"></path><path d="M44.32 99.64C49.49 98.07 52.36 97.2 52.93 97.03C53.89 96.71 54.27 96.22 54.42 96.13C54.78 95.74 54.96 95.15 54.96 94.37C54.96 59.66 54.96 40.37 54.96 36.52C54.96 35.4 54.38 34.99 54.32 34.82C53.93 34.43 53.47 34.14 52.93 33.96L44.32 31.25L44.32 27.37L76.76 27.37L76.76 31.25C71.62 32.88 68.77 33.78 68.2 33.96C67.29 34.23 66.86 34.78 66.71 34.87C66.32 35.26 66.12 35.81 66.12 36.52C66.12 71.23 66.12 90.52 66.12 94.37C66.12 95.54 66.65 96 66.71 96.18C67.13 96.57 67.63 96.85 68.2 97.03L76.76 99.64L76.76 103.63L44.32 103.63L44.32 99.64Z" id="f1Zau7upFr"></path><path d="M86.09 99.74C90.91 98.47 93.59 97.76 94.12 97.62C95.03 97.35 95.46 96.85 95.61 96.77C96.04 96.34 96.25 95.76 96.25 95.01C96.25 57.17 96.25 36.15 96.25 31.94C96.25 30.77 95.63 30.32 95.56 30.14C95.1 29.71 94.55 29.37 93.91 29.13L85.72 26.09L85.72 22.32L106.83 21.36C106.83 65.55 106.83 90.1 106.83 95.01C106.83 96.13 107.41 96.59 107.47 96.77C107.93 97.19 108.44 97.47 109.01 97.62L116.78 99.74L116.78 103.63L86.09 103.63L86.09 99.74Z" id="hlSB85Vt0"></path><path d="M124.68 117.45C126.18 117.45 127.02 117.45 127.18 117.45C127.88 117.82 128.81 118.17 128.99 118.25C130.16 118.67 131.15 118.97 131.38 119.05C132.61 119.42 133.44 119.57 133.67 119.63C134.73 119.84 135.16 119.82 135.32 119.84C137.77 119.84 138.96 119.51 139.36 119.47C141.01 119.1 142.04 118.23 142.34 118.09C143.4 117.34 144.06 116.32 144.25 116.12C145.16 114.9 145.88 113.3 146.06 112.98C146.97 111.12 147.83 108.92 148.03 108.46C148.74 106.69 149.54 104.58 150.42 102.14L146.7 95.86C135.82 71.1 129.78 57.35 128.57 54.6C128.09 53.59 127.51 53.21 127.4 53.05C126.97 52.66 126.42 52.36 125.75 52.15L121.6 50.24L121.6 46.41L146.91 46.41L146.91 50.24L139.04 52.84L152.28 82.67L154.84 89.32L155.74 89.32L168.93 54.44L161.7 50.24L161.7 46.41L183.02 46.41L183.02 50.24C180.18 52.15 178.6 53.21 178.29 53.43C177.49 53.91 176.8 54.43 176.64 54.54C176.11 54.93 175.73 55.41 175.52 55.98C162.47 90.15 155.22 109.13 153.77 112.93C151.8 118.09 149.94 120.54 149.52 121.39C147.23 124.68 145.11 126.03 144.63 126.54C142.07 128.46 139.74 128.89 139.2 129.15C136.38 129.89 133.89 129.82 133.3 129.89C132.55 129.89 131.53 129.75 131.33 129.73C130.11 129.63 129.03 129.45 128.78 129.42C127.45 129.2 126.48 128.98 126.23 128.94C125.41 128.76 124.77 128.58 124.31 128.41L124.68 117.45Z" id="a7TLFrewaH"></path><path d="M190.97 87.62L197.24 87.62C198.26 90.71 198.83 92.43 198.94 92.78C199.32 93.84 199.85 94.4 199.95 94.59C200.65 95.33 201.25 95.64 201.39 95.76C202.51 96.39 203.54 96.76 203.78 96.87C205.06 97.35 206.18 97.64 206.44 97.72C207.88 98.09 209.07 98.25 209.37 98.31C210.86 98.52 212.05 98.5 212.34 98.52C214.53 98.52 216.32 98.09 216.76 98.04C219.05 97.56 220.49 96.65 220.91 96.5C222.77 95.38 223.59 94.01 223.88 93.73C225.05 92.03 224.94 90.1 225.05 89.69C225.05 87.73 224.48 86.68 224.42 86.34C223.83 84.96 222.84 84.19 222.66 83.95C221.49 82.94 220.08 82.42 219.79 82.25C218.09 81.5 216.3 81 215.91 80.87C212.88 80.02 210.5 79.33 209.9 79.16C206.97 78.31 204.68 77.63 204.1 77.46C201.07 76.56 199.32 75.31 198.79 75.07C196.5 73.58 195.29 71.96 194.9 71.61C193.36 69.59 192.8 67.69 192.56 67.25C191.77 64.86 191.85 62.71 191.77 62.2C191.77 58.43 193.49 55.98 193.68 55.29C195.65 52.1 198.37 50.36 198.89 49.81C202.19 47.47 205.69 46.56 206.44 46.2C210.7 44.92 214.48 45.05 215.38 44.92C217.82 44.92 219.54 45.06 220 45.08C222.18 45.24 223.74 45.56 224.15 45.61C226.17 45.93 227.64 46.33 228.03 46.41C229.31 46.69 230.62 47.03 231.97 47.42L232.18 61.19L225.85 61.19C224.8 57.87 224.21 56.03 224.1 55.66C223.78 54.81 223.19 54.27 223.09 54.12C222.4 53.43 221.79 53.16 221.65 53.05C219.79 52.15 218.01 51.86 217.61 51.73C215.43 51.3 213.49 51.34 213.04 51.3C210.59 51.3 208.97 51.78 208.52 51.83C206.5 52.31 205.31 53.12 204.95 53.27C203.41 54.22 202.8 55.47 202.56 55.71C201.71 57.15 201.79 58.73 201.71 59.06C201.71 61.08 202.24 62.22 202.29 62.57C202.93 64.01 204.02 64.92 204.21 65.18C205.49 66.35 207.08 67.05 207.4 67.25C209.31 68.1 211.47 68.74 211.92 68.9C213.14 69.27 214.17 69.62 214.42 69.7C215.7 70.07 216.67 70.37 216.92 70.44C218.19 70.76 219.17 71.11 219.42 71.19C220.64 71.56 221.57 71.81 221.81 71.88C225.11 72.89 227.03 73.94 227.61 74.17C230.11 75.44 231.34 76.89 231.75 77.2C233.46 78.9 234 80.79 234.25 81.18C235.1 83.42 235.02 85.87 235.1 86.4C235.1 90.7 233.24 93.38 233.03 94.16C230.96 97.62 228.1 99.47 227.55 100.06C224.15 102.46 220.52 103.32 219.74 103.68C215.32 104.95 211.65 104.83 210.75 104.95C207.77 104.95 205.63 104.67 205.06 104.64C202.35 104.32 200.42 103.82 199.9 103.73C197.46 103.2 195.69 102.68 195.22 102.56C193.73 102.1 192.32 101.64 190.97 101.18L190.97 87.62Z" id="b1hYf8E6FQ"></path><path d="M246.82 87.62L253.09 87.62C254.11 90.71 254.68 92.43 254.79 92.78C255.17 93.84 255.7 94.4 255.81 94.59C256.5 95.33 257.1 95.64 257.24 95.76C258.36 96.39 259.39 96.76 259.63 96.87C260.91 97.35 262.03 97.64 262.29 97.72C263.73 98.09 264.92 98.25 265.22 98.31C266.71 98.52 267.9 98.5 268.2 98.52C270.38 98.52 272.17 98.09 272.61 98.04C274.9 97.56 276.34 96.65 276.76 96.5C278.62 95.38 279.44 94.01 279.73 93.73C280.9 92.03 280.79 90.1 280.9 89.69C280.9 87.73 280.33 86.68 280.27 86.34C279.68 84.96 278.69 84.19 278.51 83.95C277.34 82.94 275.93 82.42 275.64 82.25C273.94 81.5 272.15 81 271.76 80.87C268.73 80.02 266.35 79.33 265.75 79.16C262.82 78.31 260.53 77.63 259.95 77.46C256.92 76.56 255.17 75.31 254.64 75.07C252.35 73.58 251.14 71.96 250.75 71.61C249.21 69.59 248.65 67.69 248.41 67.25C247.62 64.86 247.7 62.71 247.62 62.2C247.62 58.43 249.34 55.98 249.53 55.29C251.5 52.1 254.22 50.36 254.74 49.81C258.04 47.47 261.54 46.56 262.29 46.2C266.55 44.92 270.33 45.05 271.23 44.92C273.67 44.92 275.39 45.06 275.85 45.08C278.03 45.24 279.59 45.56 280 45.61C282.02 45.93 283.49 46.33 283.88 46.41C285.16 46.69 286.47 47.03 287.82 47.42L288.03 61.19L281.7 61.19C280.65 57.87 280.06 56.03 279.95 55.66C279.63 54.81 279.04 54.27 278.94 54.12C278.25 53.43 277.64 53.16 277.5 53.05C275.64 52.15 273.86 51.86 273.46 51.73C271.28 51.3 269.34 51.34 268.89 51.3C266.44 51.3 264.82 51.78 264.37 51.83C262.35 52.31 261.16 53.12 260.8 53.27C259.26 54.22 258.65 55.47 258.41 55.71C257.56 57.15 257.65 58.73 257.56 59.06C257.56 61.08 258.09 62.22 258.15 62.57C258.78 64.01 259.87 64.92 260.06 65.18C261.34 66.35 262.93 67.05 263.25 67.25C265.16 68.1 267.32 68.74 267.77 68.9C268.99 69.27 270.02 69.62 270.27 69.7C271.55 70.07 272.52 70.37 272.77 70.44C274.04 70.76 275.02 71.11 275.27 71.19C276.49 71.56 277.42 71.81 277.66 71.88C280.96 72.89 282.88 73.94 283.46 74.17C285.96 75.44 287.19 76.89 287.6 77.2C289.31 78.9 289.85 80.79 290.1 81.18C290.95 83.42 290.87 85.87 290.95 86.4C290.95 90.7 289.09 93.38 288.88 94.16C286.81 97.62 283.95 99.47 283.4 100.06C280 102.46 276.37 103.32 275.59 103.68C271.17 104.95 267.5 104.83 266.6 104.95C263.62 104.95 261.48 104.67 260.91 104.64C258.2 104.32 256.27 103.82 255.75 103.73C253.31 103.2 251.54 102.68 251.07 102.56C249.58 102.1 248.17 101.64 246.82 101.18L246.82 87.62Z" id="b2HuIoaK5Q"></path><path d="M337.98 95.06C335.74 98.2 333.62 99.61 333.14 100.12C330.53 101.98 328.4 102.75 327.87 103.04C325.22 104.05 323.18 104.24 322.66 104.37C320.16 104.74 318.55 104.7 318.09 104.74C314.21 104.74 311.87 103.55 311.18 103.41C308.15 102.03 306.53 100.21 306.02 99.85C303.95 97.62 303.1 95.26 302.78 94.74C301.66 91.87 301.77 89.34 301.66 88.74C301.66 85.07 302.81 82.9 302.93 82.25C304.26 79.38 306.05 77.7 306.39 77.2C308.52 75.02 310.84 73.89 311.34 73.53C314.15 71.99 316.6 71.28 317.19 71.03C320.22 70.07 322.69 69.78 323.3 69.65C326.39 69.22 328.52 69.26 329.1 69.22C329.68 69.22 330.72 69.32 330.91 69.33C332.13 69.38 333.2 69.52 333.46 69.54C334.84 69.7 335.75 69.83 336.01 69.86C336.83 69.93 337.41 69.98 337.76 70.02C337.8 65.3 337.81 62.67 337.82 62.15C337.82 59.12 337.1 57.6 337.02 57.1C336.22 55.08 335.06 54.18 334.84 53.85C333.46 52.63 331.82 52.27 331.49 52.1C329.52 51.57 327.57 51.62 327.13 51.57C324.42 51.57 322.2 52.43 321.65 52.52C318.94 53.48 316.96 54.63 316.44 54.86C313.99 56.19 312.33 57.4 311.87 57.68C310.45 58.64 309.26 59.44 308.31 60.07L306.18 60.07C305.95 53.85 305.83 50.4 305.81 49.7C308.09 48.85 309.97 48.17 310.43 48C312.83 47.1 314.98 46.62 315.48 46.46C318.14 45.77 320.56 45.46 321.12 45.34C324.15 44.92 327.1 44.96 327.77 44.92C331.65 44.92 334.61 45.64 335.37 45.72C339.09 46.51 341.31 48.3 341.97 48.59C344.89 50.61 346.18 53.61 346.65 54.17C347.85 56.55 348.45 59.58 348.45 63.26C348.39 80.97 348.35 90.81 348.35 92.78C348.35 93.79 348.73 94.45 348.77 94.64C349.2 95.44 349.78 95.88 349.89 96.02C350.63 96.61 351.37 96.83 351.54 96.92C352.49 97.24 353.21 97.21 353.4 97.24C353.98 97.24 354.45 97.15 354.57 97.14C355.21 96.98 355.76 96.8 355.9 96.77C356.64 96.5 357.14 96.24 357.28 96.18C357.74 95.97 358.18 95.77 358.61 95.6L359.46 95.6C359.46 98.28 359.46 99.76 359.46 100.06C358.66 100.65 357.55 101.31 357.33 101.44C356.06 102.24 354.8 102.83 354.52 102.99C353.03 103.68 351.74 104.09 351.43 104.21C349.89 104.74 348.89 104.69 348.61 104.74C346.11 104.74 344.69 104.22 344.25 104.16C342.39 103.57 341.43 102.58 341.11 102.4C339.89 101.18 339.44 99.67 339.25 99.37C338.86 98.17 338.67 96.73 338.67 95.06C338.3 95.06 338.07 95.06 337.98 95.06ZM337.76 74.91C332.23 74.91 328.62 75.34 327.61 75.39C323.04 75.87 320.57 77.02 319.79 77.2C316.55 78.47 315.24 80.45 314.74 80.81C312.98 83.15 313.16 86.22 312.98 86.82C312.98 89.8 313.85 91.32 313.94 91.82C314.9 93.79 316.14 94.64 316.39 94.96C317.88 96.13 319.36 96.44 319.69 96.61C321.55 97.08 322.94 97.04 323.3 97.08C325.06 97.08 326.7 96.75 327.08 96.71C329.15 96.34 330.71 95.71 331.12 95.6C333.09 94.85 334.47 93.92 334.84 93.73C336.01 92.95 336.98 92.03 337.76 90.97C337.76 82.4 337.76 77.05 337.76 74.91Z" id="fcwCAhku"></path></defs><g><g><g><use xlink:href="#b2m74RkYO1" opacity="1" fill="#324a30" fill-opacity="1"></use><g><use xlink:href="#b2m74RkYO1" opacity="1" fill-opacity="0" stroke="#ffffff" stroke-width="2.5" stroke-opacity="0"></use></g></g><g><use xlink:href="#f1Zau7upFr" opacity="1" fill="#f6f6ee" fill-opacity="1"></use><g><use xlink:href="#f1Zau7upFr" opacity="1" fill-opacity="0" stroke="#324a30" stroke-width="2.5" stroke-opacity="1"></use></g></g><g><use xlink:href="#hlSB85Vt0" opacity="1" fill="#f6f6ee" fill-opacity="1"></use><g><use xlink:href="#hlSB85Vt0" opacity="1" fill-opacity="0" stroke="#324a30" stroke-width="2.5" stroke-opacity="1"></use></g></g><g><use xlink:href="#a7TLFrewaH" opacity="1" fill="#f6f6ee" fill-opacity="1"></use><g><use xlink:href="#a7TLFrewaH" opacity="1" fill-opacity="0" stroke="#324a30" stroke-width="2.5" stroke-opacity="1"></use></g></g><g><use xlink:href="#b1hYf8E6FQ" opacity="1" fill="#f6f6ee" fill-opacity="1"></use><g><use xlink:href="#b1hYf8E6FQ" opacity="1" fill-opacity="0" stroke="#324a30" stroke-width="2.5" stroke-opacity="1"></use></g></g><g><use xlink:href="#b2HuIoaK5Q" opacity="1" fill="#f6f6ee" fill-opacity="1"></use><g><use xlink:href="#b2HuIoaK5Q" opacity="1" fill-opacity="0" stroke="#324a30" stroke-width="2.5" stroke-opacity="1"></use></g></g><g><use xlink:href="#fcwCAhku" opacity="1" fill="#f6f6ee" fill-opacity="1"></use><g><use xlink:href="#fcwCAhku" opacity="1" fill-opacity="0" stroke="#324a30" stroke-width="2.5" stroke-opacity="1"></use></g></g></g></g></svg>
